<mxfile host="app.diagrams.net" modified="2021-08-11T02:13:05.073Z" agent="5.0 (Macintosh; Intel Mac OS X 10_15_7) AppleWebKit/537.36 (KHTML, like Gecko) Chrome/91.0.4472.164 Safari/537.36" etag="I27o5SI8jm-r6GcYEfDW" version="14.9.6" type="github">
  <diagram id="aR7fwTkR6gkx-NJgE7hl" name="Page-1">
    <mxGraphModel dx="1224" dy="811" grid="1" gridSize="10" guides="1" tooltips="1" connect="1" arrows="1" fold="1" page="1" pageScale="1" pageWidth="850" pageHeight="1100" math="0" shadow="0">
      <root>
        <mxCell id="0" />
        <mxCell id="1" parent="0" />
        <mxCell id="lgSJwSczJzdoCIYk8PvY-1" value="Store" style="rounded=0;whiteSpace=wrap;html=1;fillColor=#fff2cc;strokeColor=#d6b656;" vertex="1" parent="1">
          <mxGeometry x="160" y="320" width="120" height="60" as="geometry" />
        </mxCell>
        <mxCell id="lgSJwSczJzdoCIYk8PvY-3" style="edgeStyle=orthogonalEdgeStyle;rounded=0;orthogonalLoop=1;jettySize=auto;html=1;entryX=0.5;entryY=0;entryDx=0;entryDy=0;" edge="1" parent="1" source="lgSJwSczJzdoCIYk8PvY-2" target="lgSJwSczJzdoCIYk8PvY-1">
          <mxGeometry relative="1" as="geometry" />
        </mxCell>
        <mxCell id="lgSJwSczJzdoCIYk8PvY-2" value="City" style="rounded=0;whiteSpace=wrap;html=1;fillColor=#d5e8d4;strokeColor=#82b366;" vertex="1" parent="1">
          <mxGeometry x="160" y="170" width="120" height="60" as="geometry" />
        </mxCell>
      </root>
    </mxGraphModel>
  </diagram>
</mxfile>
